<svg width="301" height="300" viewBox="0 0 301 300" fill="none" xmlns="http://www.w3.org/2000/svg">
<path d="M229.706 55.2295C219.664 55.2295 212.133 62.7609 212.133 72.8027C212.133 82.8446 219.664 90.3759 229.706 90.3759C239.748 90.3759 247.279 82.8446 247.279 72.8027C247.279 62.7609 239.748 55.2295 229.706 55.2295Z" fill="black"/>
<path d="M150.629 77.8242C109.206 77.8242 76.5703 111.715 76.5703 151.883C76.5703 192.05 110.462 225.941 150.629 225.941C190.796 225.941 224.687 192.05 224.687 151.883C224.687 111.715 192.051 77.8242 150.629 77.8242ZM150.629 199.582C124.269 199.582 102.93 178.243 102.93 151.883C102.93 125.523 124.269 104.184 150.629 104.184C176.989 104.184 198.328 125.523 198.328 151.883C198.328 178.243 176.989 199.582 150.629 199.582Z" fill="black"/>
<path d="M210.879 0H91.6318C40.1674 0 0 40.1674 0 90.3766V209.623C0 259.833 40.1674 300 90.3766 300H209.623C259.833 300 300 259.833 300 209.623V90.3766C301.255 40.1674 261.088 0 210.879 0ZM272.385 210.879C272.385 244.77 244.77 273.64 209.623 273.64H90.3766C56.4854 273.64 27.6151 246.025 27.6151 210.879V91.6318C27.6151 57.7406 55.2301 28.8703 90.3766 28.8703H209.623C243.515 28.8703 272.385 56.4854 272.385 91.6318V210.879Z" fill="black"/>
</svg>
